PathFileType	4	(X/Y/Z)	RBDS017\RBDS017runT45.trc
DataRate	CameraRate	NumFrames	NumMarkers	Units	OrigDataRate	OrigDataStartFrame	OrigNumFrames
150.000000	150.000000	5	33	mm	150.000000	3375	4500
Frame#	Time	L.ASIS			L.Heel.Bottom			L.Heel.Lateral			L.Heel.Top			L.Iliac.Crest			L.MT1			L.MT5			L.PSIS			L.Shank.Bottom.Lateral			L.Shank.Bottom.Medial			L.Shank.Top.Lateral			L.Shank.Top.Medial			L.Thigh.Bottom.Lateral			L.Thigh.Bottom.Medial			L.Thigh.Top.Lateral			L.Thigh.Top.Medial			R.ASIS			R.ASY			R.Heel.Bottom			R.Heel.Lateral			R.Heel.Top			R.Iliac.Crest			R.MT1			R.MT5			R.PSIS			R.Shank.Bottom.Lateral			R.Shank.Bottom.Medial			R.Shank.Top.Lateral			R.Shank.Top.Medial			R.Thigh.Bottom.Lateral			R.Thigh.Bottom.Medial			R.Thigh.Top.Lateral			R.Thigh.Top.Medial			
		X1	Y1	Z1	X2	Y2	Z2	X3	Y3	Z3	X4	Y4	Z4	X5	Y5	Z5	X6	Y6	Z6	X7	Y7	Z7	X8	Y8	Z8	X9	Y9	Z9	X10	Y10	Z10	X11	Y11	Z11	X12	Y12	Z12	X13	Y13	Z13	X14	Y14	Z14	X15	Y15	Z15	X16	Y16	Z16	X17	Y17	Z17	X18	Y18	Z18	X19	Y19	Z19	X20	Y20	Z20	X21	Y21	Z21	X22	Y22	Z22	X23	Y23	Z23	X24	Y24	Z24	X25	Y25	Z25	X26	Y26	Z26	X27	Y27	Z27	X28	Y28	Z28	X29	Y29	Z29	X30	Y30	Z30	X31	Y31	Z31	X32	Y32	Z32	X33	Y33	Z33	

3376	22.5	2266.214865416293	977.9030653440097	899.465659319713	1816.15679070261	664.7986915520588	970.2743487719698	1823.054176790043	644.918774731701	930.5580157831267	1856.057475481904	644.0389549015348	966.1447128117045	2225.208909573473	1080.375475962881	862.9698024186667	1772.275707848937	438.6919611134707	976.3215700138365	1756.919061988682	494.6424489931186	877.9186312045085	2095.867176433007	1067.19647405663	980.3868831005377	1944.90104649998	567.6583032985486	885.1494470339447	1956.519547035223	605.2146721117433	924.02319723312	2022.81255116386	564.2663827895386	865.4327448934475	2034.973703642235	601.2663143521114	902.2853623524396	2257.558221430409	622.1165972140503	815.2820959206057	2204.3701548965	598.0299961551809	857.5561591477605	2215.364717797616	723.4359906386306	823.1174017518127	2165.743157635457	701.415556652547	863.9696671921789	2252.855965763955	992.4139154192142	1184.693930744957	2232.598689724544	74.88353329299817	1099.907397759482	2037.846491493874	34.7317460199559	1048.111781540148	2054.278357433056	57.39859164625352	1091.175045838826	2052.590274600459	80.38135493912978	1048.420076605673	2195.968531794604	1066.346805647745	1218.07649759684	2265.697334718613	46.29329223107514	1064.550472380495	2202.371568267145	40.54261241463553	1166.492145351334	2091.458936785718	1067.999438947603	1076.936429300098	2147.699729216222	178.2829184701022	1119.627670070186	2112.926685874879	199.2066834394887	1087.698382733983	2174.050497237947	256.650240225823	1140.858712076016	2134.699711629527	274.9571690269156	1108.470687405332	2252.728292232683	615.3327914084318	1185.233867161619	2199.069814617863	597.7818114616346	1138.7212928724	2204.529079212048	713.2829448954496	1199.604129719232	2152.875787131296	695.8994506521924	1157.037664678804	
3377	22.50666666666667	2263.851491614341	978.375634497395	898.0324431930881	1826.919417584073	651.9561839952933	967.9669024981079	1835.124574490142	632.0640071280462	928.5226587875565	1867.943426540965	633.4278134836298	964.3980179061114	2219.068476022065	1081.070477834632	862.0039851133802	1795.450559591837	424.025824513268	976.7499700388111	1777.517523550433	477.7946768676941	877.5525195950066	2094.498248874139	1068.43990555096	981.0565750522294	1961.36178806291	559.7950724695529	884.7156535286343	1971.189245091414	598.4460560069011	922.9193088135938	2039.33882038468	559.4217452537358	865.222454385128	2049.723227113092	597.5975480201924	901.3933068674737	2271.772883854635	627.8362751465646	816.0677814849003	2219.215107040066	600.970706088406	857.5322266980164	2224.438631482357	726.8932520213014	823.6355771239294	2175.255651988204	702.2052746876627	863.5110676707724	2251.681442364347	992.2717508029906	1185.398442842395	2201.892475165788	75.33665270837297	1100.947088333537	2007.190418402556	36.16964929090113	1048.687824776358	2023.653148241528	58.62086089641848	1091.917869745361	2021.757741936719	81.83961251905032	1049.364986014026	2193.117990052373	1066.139806123472	1218.358727453347	2234.74240829215	46.8321707663471	1065.457140523099	2171.585033359346	40.55877957739088	1167.063308377011	2090.757593077234	1069.150619771111	1077.336281486123	2120.016435861181	179.4935951076839	1120.329944346926	2085.889376168893	201.3028401058816	1088.358945406578	2148.843605101377	257.0283564000225	1141.221752474063	2110.051517020326	276.351411269821	1108.822449965952	2239.977059915495	613.2204354693973	1184.936621022208	2185.433332812578	597.4407739206478	1138.817057773875	2195.171465800008	712.8176816885536	1199.364690083185	2142.858299866731	697.1695552834456	1156.943526511662	
3378	22.51333333333334	2261.915149109963	980.2489826695665	896.3800596001851	1837.047448136442	637.1853183709038	966.0016144199261	1846.665796911184	617.4835680905162	926.7491518435135	1879.18920792354	621.1669421088627	962.8745858886639	2212.704177334376	1083.093877139076	861.029863993729	1819.210211684773	408.0232000917704	977.2373170619391	1798.573103775744	459.537303391109	877.3366726817641	2093.582724861106	1070.417871647046	981.6709445666916	1977.396224580197	551.1484506902491	884.5153394698885	1985.090379771218	590.8770795216019	922.0269436791068	2055.312054933512	554.3184993789436	865.2670598718047	2063.578339898807	593.6518425140824	900.743775085142	2285.68762953234	634.938094201935	817.1078821207998	2233.834106591115	605.3791156039931	857.7573604414715	2233.388793591675	731.5316710322339	824.2682882707275	2184.703710640248	704.2451852730838	863.1554768761628	2251.079686361172	992.8838787285569	1185.680878515698	2171.268023393541	75.65960249106421	1102.182123340205	1976.413819370811	38.25508289538195	1049.448465324916	1992.996916444566	60.28837374178962	1092.907007832157	1990.894980329449	83.93318134156016	1050.637807770176	2190.972410270151	1067.244011922806	1218.596512103574	2203.716702028825	47.19123822651998	1066.343096344204	2140.775099871354	40.2997823521693	1167.696211896807	2090.51354469376	1070.974270497459	1077.834711431037	2091.861349888814	181.1763167897591	1121.347123947955	2058.399425591979	203.7117279095728	1089.250541311337	2122.823481116495	257.9121335138435	1141.865433079154	2084.614171668843	278.0863748613353	1109.399851766697	2226.148483027554	611.8931433816449	1184.72146741679	2170.663864488892	598.0457364806708	1139.11540588499	2185.193556751922	713.1667418000523	1199.118216489642	2132.175791328464	699.456702678816	1156.912803192741	
3379	22.52	2260.467987750051	983.399268367686	894.630188740764	1846.818305635705	620.52624644298	964.4151449185143	1857.940520348112	601.2325854493445	925.2715608318592	1890.015126833933	607.2705280062936	961.6061224226503	2206.462111333065	1086.275168933446	860.1134824411016	1843.632721727419	390.9388360755971	977.7733809065267	1820.256647848063	440.1224777078063	877.26521362887	2093.117271976448	1073.053459566111	982.2208269323513	1993.094612009867	541.7625655412356	884.5511010628697	1998.338733168711	582.4779762293209	921.3751970805117	2070.765465556262	548.9362855170757	865.5645939498917	2076.598569328228	589.328868523288	900.36159480691	2299.121431243105	643.2458249466032	818.3518584138696	2248.030587799236	611.126471731008	858.1941217734612	2242.123650812202	737.2321869701121	824.9546768914489	2193.986448821252	707.4656653050256	862.8660579333194	2251.03595335422	994.1681794784572	1185.521133709767	2140.838176454979	75.86715833628284	1103.499174184116	1945.621518459507	41.22671184619642	1050.371018037348	1962.445410353156	62.64412628804224	1094.095148643192	1960.183718426211	86.87434629243508	1052.163355709904	2189.789523626654	1069.520469794709	1218.754829955096	2172.682233960537	47.35610064349668	1067.124092632288	2109.997524916005	39.87358794979211	1168.340003716478	2090.707444673484	1073.404317972296	1078.427501095902	2063.471715778494	183.4783031136299	1122.576639373108	2030.657342842654	206.5958817053889	1090.295202033706	2096.254623391161	259.4737613793725	1142.710537087733	2058.604585271176	280.349170262265	1110.150615643341	2211.428039696536	611.4978369733194	1184.544119368721	2155.01154063621	599.7478647253254	1139.520918285933	2174.736363555036	714.4030540641774	1198.837184294147	2121.01602495389	702.8316321704548	1156.887201779124	
3380	22.52666666666667	2259.547832270462	987.6508391508953	892.9143211887773	1856.539633264756	602.0548975608002	963.2124117715452	1869.233694846463	583.3899291500923	924.1028141032748	1900.67174733927	591.785187764067	960.6039548849096	2200.702802408122	1090.425285632551	859.318343840437	1868.818914022869	373.03063334175	978.3466464090008	1842.737854564292	419.7982922870397	877.3247582999085	2093.081108058837	1076.269973264921	982.6977149801448	2008.573881331075	531.6905768832994	884.8143903878976	2011.085926405997	573.2296551143247	920.9838153525168	2085.760021939968	543.2566217636149	866.1063650508941	2088.880106713243	584.5327876143629	900.2654109063758	2311.921221821866	652.5528812380749	819.7482904285531	2261.627705864084	618.0498499661137	858.7997889884718	2250.566861567242	743.8563174793153	825.6342309458159	2203.012591832454	711.7743638310994	862.6033780864784	2251.508839239433	996.0430892446326	1184.935266525386	2110.725514295254	75.98792550462521	1104.816525782662	1914.977180398753	45.32250731190693	1051.434539601727	1932.177655308466	65.92077013545821	1095.441122800735	1929.854400051219	90.86371089444337	1053.881070537172	2189.775550836906	1072.795307319839	1218.795196580142	2141.713280265718	47.3458287825937	1067.750769357301	2079.320378727533	39.39597451096884	1168.959205306412	2091.308083032644	1076.370084083283	1079.101509037179	2035.110446395346	186.5407874351962	1123.93794569645	2002.903106992347	210.1088213221226	1091.427136686806	2069.427015294136	261.8757130231129	1143.686388926549	2032.278572402615	283.3137195079226	1111.020057199149	2196.028593526611	612.1582503402218	1184.35645003992	2138.756210016241	602.675868463655	1139.927376103853	2163.957919081586	716.582058544813	1198.495347869034	2109.589572173382	707.3429567748983	1156.801605394649	
